<?xml version="1.0" encoding="UTF-8"?>
<svg width="96px" height="31px" viewBox="0 0 96 31" version="1.1" xmlns="http://www.w3.org/2000/svg" xmlns:xlink="http://www.w3.org/1999/xlink">
    <!-- Generator: Sketch 48.1 (47250) - http://www.bohemiancoding.com/sketch -->
    <title>logo_black</title>
    <desc>Created with Sketch.</desc>
    <defs>
        <polygon id="path-1" points="0 0.719307692 0 30 11.5146 30 23.0292 30 23.0292 0.719307692"></polygon>
        <polygon id="path-3" points="0 31 96 31 96 0 0 0"></polygon>
    </defs>
    <g id="Desktop-HD" stroke="none" stroke-width="1" fill="none" fill-rule="evenodd" transform="translate(-65.000000, -24.000000)">
        <g id="logo_black" transform="translate(65.000000, 24.000000)">
            <g id="Group-3" transform="translate(0.000000, 1.000000)">
                <mask id="mask-2" fill="white">
                    <use xlink:href="#path-1"></use>
                </mask>
                <g id="Clip-2"></g>
                <path d="M14.3484,5.21430769 C11.4396,5.21430769 9.2172,6.11092308 7.6836,7.90653846 C6.1476,9.70215385 5.3796,12.1940769 5.3796,15.3799231 C5.3796,16.8917692 5.5644,18.2748462 5.9316,19.5315385 C6.2988,20.7858462 6.8412,21.8589231 7.5612,22.7507692 C8.2812,23.6426154 9.1788,24.3365385 10.2516,24.8373077 C11.3244,25.3356923 12.582,25.5860769 14.022,25.5860769 C14.9196,25.5860769 15.6948,25.5526923 16.3452,25.4835385 C16.998,25.4167692 17.514,25.3309231 17.8956,25.2212308 L17.8956,15.1366923 L23.0292,15.1366923 L23.0292,28.6216923 C22.3236,28.8935385 21.1284,29.1892308 19.4436,29.5135385 C17.7588,29.8378462 15.8148,30 13.614,30 C11.5764,30 9.714,29.6756923 8.0292,29.0270769 C6.3444,28.3808462 4.9116,27.4341538 3.7308,26.1917692 C2.5476,24.9517692 1.6308,23.4256154 0.978,21.6156923 C0.3252,19.8081538 -0.0012,17.7287692 -0.0012,15.3799231 C-0.0012,13.0310769 0.3588,10.9516923 1.0812,9.14176923 C1.7988,7.33423077 2.7852,5.80092308 4.0356,4.54661538 C5.286,3.28992308 6.7524,2.33846154 8.4372,1.68984615 C10.122,1.04123077 11.9148,0.719307692 13.818,0.719307692 C15.1212,0.719307692 16.2852,0.805153846 17.3028,0.981615385 C18.3228,1.15807692 19.1988,1.35361538 19.9332,1.56823077 C20.6652,1.78523077 21.27,2.01415385 21.7476,2.25738462 C22.2204,2.50061538 22.554,2.67707692 22.746,2.78438462 L21.1956,6.95507692 C20.382,6.46861538 19.3668,6.05846154 18.1596,5.71984615 C16.95,5.38361538 15.6804,5.21430769 14.3484,5.21430769" id="Fill-1" fill="#242424" mask="url(#mask-2)"></path>
            </g>
            <path d="M35.8809855,27.137983 C37.3812639,27.137983 38.5194878,27.057475 39.2980234,26.8964589 L39.2980234,21.5095253 C39.0306236,21.4266494 38.6401726,21.3485093 38.1314031,21.2680013 C37.6226336,21.1874933 37.0594376,21.1472393 36.4441815,21.1472393 C35.9070156,21.1472393 35.3651169,21.1874933 34.8161192,21.2680013 C34.2671214,21.3485093 33.7701837,21.495318 33.3276726,21.7107954 C32.8875278,21.9239049 32.530206,22.224626 32.2651726,22.6129588 C31.9954065,23.0036595 31.8628898,23.4914433 31.8628898,24.0810462 C31.8628898,25.2342051 32.2249443,26.0321817 32.9466871,26.4749758 C33.6707962,26.9177699 34.6481069,27.137983 35.8809855,27.137983 M35.4787027,9 C37.0878341,9 38.4390312,9.20127005 39.5393931,9.60381014 C40.6373886,10.0063502 41.5129454,10.5699064 42.1707962,11.2944785 C42.828647,12.0166828 43.2971882,12.8951674 43.5764198,13.9275643 C43.8603842,14.9599613 44,16.0918093 44,17.3254763 L44,30.0741578 C43.2498608,30.2351738 42.1163697,30.4293402 40.6042595,30.656657 C39.0897829,30.8863416 37.3812639,31 35.4787027,31 C34.219794,31 33.0673719,30.879238 32.0238029,30.6377139 C30.9778675,30.3961899 30.0857461,30.0078571 29.3498051,29.4703476 C28.6138641,28.9352061 28.0388363,28.2390485 27.6223552,27.379507 C27.2058742,26.5223334 27,25.4638898 27,24.2018082 C27,22.9965558 27.2342706,21.9783662 27.7028118,21.1472393 C28.171353,20.3161124 28.8079065,19.6388979 29.6124722,19.1155957 C30.4146715,18.5922936 31.3446548,18.2181681 32.4047884,17.9884835 C33.4625557,17.7635346 34.5676503,17.6475083 35.7200724,17.6475083 C36.2572383,17.6475083 36.8180679,17.6806587 37.4096604,17.7493273 C37.9988864,17.815628 38.6283408,17.9292864 39.2980234,18.0903024 L39.2980234,17.2852223 C39.2980234,16.724034 39.231765,16.1865246 39.096882,15.6774298 C38.9619989,15.1683349 38.7277283,14.7184372 38.3940702,14.3301044 C38.0580457,13.9417716 37.6155345,13.6386826 37.0665367,13.4232053 C36.517539,13.2100958 35.826559,13.1035411 34.9959633,13.1035411 C33.8719376,13.1035411 32.8402004,13.1840491 31.903118,13.3450651 C30.9636693,13.5060812 30.2016982,13.6931439 29.6124722,13.9086212 L29.0090479,9.96609622 C29.624304,9.75298676 30.5211581,9.53750942 31.7019766,9.32203207 C32.8804287,9.10892261 34.1393374,9 35.4787027,9" id="Fill-4" fill="#242424"></path>
            <path d="M50,10.1020948 C50.960388,9.84046307 52.2118027,9.59040794 53.7469685,9.35424476 C55.2869846,9.11808159 56.9870655,9 58.8569119,9 C60.6127728,9 62.0824576,9.23153252 63.2635408,9.6876516 C64.4446241,10.1484013 65.3856103,10.7897464 66.0840744,11.6163175 C66.7849636,12.4405733 67.279709,13.4384785 67.5683104,14.6030871 C67.8544867,15.770011 68,17.0480706 68,18.439581 L68,30 L63.0161681,30 L63.0161681,19.1851158 C63.0161681,18.0853363 62.9409863,17.1476295 62.7881973,16.3743109 C62.6378335,15.6009923 62.3904608,14.9735391 62.0485044,14.4873208 C61.7041229,14.0011025 61.2384802,13.6468578 60.6491512,13.4245865 C60.0573969,13.2023153 59.3371059,13.0911797 58.4858529,13.0911797 C57.8528698,13.0911797 57.1932094,13.1305402 56.5092967,13.2092613 C55.8205335,13.285667 55.3136621,13.3528115 54.9838319,13.4060639 L54.9838319,30 L50,30 L50,10.1020948 Z" id="Fill-6" fill="#242424"></path>
            <path d="M73,3.80645709 L77.7953689,3 L77.7953689,9.3826678 L85.1669359,9.3826678 L85.1669359,13.4649108 L77.7953689,13.4649108 L77.7953689,22.0694987 C77.7953689,23.7656754 78.0590558,24.9789295 78.5887632,25.7068819 C79.1161371,26.4324554 80.0145396,26.7964316 81.2839706,26.7964316 C82.1543708,26.7964316 82.9290971,26.7036534 83.6011488,26.513339 C84.275534,26.3254036 84.812242,26.1517417 85.2066056,25.9875956 L86,29.8676296 C85.4446239,30.1102804 84.7165679,30.360068 83.820499,30.6146134 C82.9220966,30.8691589 81.8650153,31 80.6492551,31 C79.1698079,31 77.9353796,30.797791 76.9436367,30.393373 C75.9542272,29.988955 75.1654999,29.4037383 74.5867887,28.6353441 C74.005744,27.8669499 73.5950458,26.9391674 73.3570275,25.8472387 C73.1190092,24.7553101 73,23.51113 73,22.1099405 L73,3.80645709 Z" id="Fill-8" fill="#242424"></path>
            <mask id="mask-4" fill="white">
                <use xlink:href="#path-3"></use>
            </mask>
            <g id="Clip-11"></g>
            <path d="M90.6045041,30 L95.4760964,30 L95.4760964,9.10701686 L90.6045041,9.10701686 L90.6045041,30 Z M96,2.99647197 C96,3.90199922 95.7036744,4.62171697 95.1133939,5.15327323 C94.5231134,5.6871815 93.8261557,5.95295962 93.0201501,5.95295962 C92.188068,5.95295962 91.474516,5.6871815 90.8866061,5.15327323 C90.293955,4.62171697 90,3.90199922 90,2.99647197 C90,2.06507252 90.293955,1.33359467 90.8866061,0.799686397 C91.474516,0.268130145 92.188068,0 93.0201501,0 C93.8261557,0 94.5231134,0.268130145 95.1133939,0.799686397 C95.7036744,1.33359467 96,2.06507252 96,2.99647197 Z" id="Fill-10" fill="#242424" mask="url(#mask-4)"></path>
        </g>
    </g>
</svg>